<?xml version="1.0" encoding="utf-8"?>
<!-- Generator: Adobe Illustrator 25.0.0, SVG Export Plug-In . SVG Version: 6.00 Build 0)  -->
<svg version="1.1" id="Calque_1" xmlns="http://www.w3.org/2000/svg" xmlns:xlink="http://www.w3.org/1999/xlink" x="0px" y="0px"
	 viewBox="0 0 1920 1080" style="enable-background:new 0 0 1920 1080;" xml:space="preserve">
<style type="text/css">
	.st0{fill:#FFFFFF;}
</style>
<g>
	<path class="st0" d="M837.81,230.63v618.75H654.48V779.1c-48.13,48.89-118.4,70.27-189.45,70.27
		c-118.4,0-250.55-51.95-250.55-236.8s132.15-236.8,250.55-236.8c71.04,0,141.32,21.39,189.45,70.28V230.63H837.81z M654.48,612.57
		c0-67.22-46.6-84.02-128.33-84.02s-128.33,16.8-128.33,84.02c0,67.23,46.6,84.03,128.33,84.03S654.48,679.8,654.48,612.57z"/>
	<path class="st0" d="M1051.15,230.63l0.5,618.75H868.31l-0.5-618.75H1051.15z"/>
	<path class="st0" d="M1705.52,612.57c0,184.86-132.15,236.8-250.56,236.8c-71.04,0-141.32-21.38-189.44-70.27v70.27h-183.34V230.63
		h183.34v215.42c48.12-48.89,118.4-70.28,189.44-70.28C1573.36,375.77,1705.52,427.71,1705.52,612.57z M1522.18,612.57
		c0-67.22-46.59-84.02-128.33-84.02c-81.74,0-128.33,16.8-128.33,84.02c0,67.23,46.59,84.03,128.33,84.03
		C1475.59,696.6,1522.18,679.8,1522.18,612.57z"/>
</g>
</svg>
